<svg id="SvgjsSvg1001" width="288" height="288" xmlns="http://www.w3.org/2000/svg" version="1.1" xmlns:xlink="http://www.w3.org/1999/xlink" xmlns:svgjs="http://svgjs.com/svgjs"><defs id="SvgjsDefs1002"></defs><g id="SvgjsG1008"><svg xmlns="http://www.w3.org/2000/svg" data-name="Layer 1" viewBox="0 0 122.97 122.88" width="288" height="288"><path d="M61.44,0a61.46,61.46,0,0,1,54.91,89l6.44,25.74a5.83,5.83,0,0,1-7.25,7L91.62,115A61.43,61.43,0,1,1,61.44,0ZM96.63,26.25a49.78,49.78,0,1,0-9,77.52A5.83,5.83,0,0,1,92.4,103L109,107.77l-4.5-18a5.86,5.86,0,0,1,.51-4.34,49.06,49.06,0,0,0,4.62-11.58,50,50,0,0,0-13-47.62Z" fill="#071a52" class="color000 svgShape"></path></svg></g></svg>