<svg id="SvgjsSvg1017" width="288" height="288" xmlns="http://www.w3.org/2000/svg" version="1.1" xmlns:xlink="http://www.w3.org/1999/xlink" xmlns:svgjs="http://svgjs.com/svgjs"><defs id="SvgjsDefs1018"></defs><g id="SvgjsG1019"><svg xmlns="http://www.w3.org/2000/svg" data-name="Layer 1" viewBox="0 0 122.88 122.88" width="288" height="288"><path d="M61.44,0A61.46,61.46,0,1,1,18,18,61.21,61.21,0,0,1,61.44,0ZM35,54.09h9.64a2,2,0,0,1,2,2V82.5a2,2,0,0,1-2,2H35a2,2,0,0,1-2-2V56.08a2,2,0,0,1,2-2ZM60.3,34.28C61.35,29,70,33.86,70.61,42.41a36.58,36.58,0,0,1-.74,9.07H82.29c5.16.2,9.67,3.9,6.49,10,.72,2.65.83,5.75-1.14,7,.25,4.17-.91,6.76-3.07,8.8A10.53,10.53,0,0,1,83,82.61C81.31,85,80,84.4,77.33,84.4h-21c-3.32,0-5.14-.91-7.31-3.64V57.41c6.25-1.69,9.58-10.24,11.25-15.86V34.28Zm37-8.7a50.72,50.72,0,1,0,14.85,35.86A50.59,50.59,0,0,0,97.3,25.58Z" fill="#1e6262" class="color000 svgShape"></path></svg></g></svg>